<svg xmlns="http://www.w3.org/2000/svg" xmlns:xlink="http://www.w3.org/1999/xlink" width="55" height="55" viewBox="0 0 55 55"><defs><style>.a{clip-path:url(#b);}.b{fill:#fff;}</style><clipPath id="b"><rect width="55" height="55"/></clipPath></defs><g id="a" class="a"><g transform="translate(-2.776 -2.756)"><path class="b" d="M52.079,15.114H50.9a9.085,9.085,0,0,0,.575-3.028A9.327,9.327,0,0,0,41.965,3a13.506,13.506,0,0,0-11.689,7.268A13.506,13.506,0,0,0,18.587,3a9.327,9.327,0,0,0-9.509,9.085,9.085,9.085,0,0,0,.575,3.028H8.473a6.056,6.056,0,0,0-5.451,6.662v10.9A6.3,6.3,0,0,0,7.565,39.34V52.573a5.3,5.3,0,0,0,5.481,4.936H47.507a5.3,5.3,0,0,0,5.481-5.057V39.34a6.3,6.3,0,0,0,4.542-6.662v-10.9a6.056,6.056,0,0,0-5.451-6.662Zm-.606,6.662v10.9a1.7,1.7,0,0,1,0,.606H33.3V21.171H51.474a1.7,1.7,0,0,1,0,.606ZM41.965,9.058a3.27,3.27,0,0,1,3.452,3.028,3.27,3.27,0,0,1-3.452,3.028H34.516A8.873,8.873,0,0,1,41.965,9.058Zm-26.83,3.028a3.27,3.27,0,0,1,3.452-3.028,8.873,8.873,0,0,1,7.419,6.056H18.587a3.27,3.27,0,0,1-3.452-3.028Zm-6.056,9.69a1.7,1.7,0,0,1,0-.606H27.248V33.283H9.079a1.7,1.7,0,0,1,0-.606ZM13.621,39.34H27.248V51.453H13.621ZM33.3,51.453V39.34H46.931V51.453Z" transform="translate(0 0)"/></g></g></svg>