<svg xmlns="http://www.w3.org/2000/svg" xmlns:xlink="http://www.w3.org/1999/xlink" width="62" height="62" viewBox="0 0 62 62"><defs><style>.a{clip-path:url(#b);}.b{fill:#ffd500;}</style><clipPath id="b"><rect width="62" height="62"/></clipPath></defs><g id="a" class="a"><g transform="translate(-2.832 -2.808)"><path class="b" d="M58.476,16.693H57.141a10.269,10.269,0,0,0,.65-3.423A10.542,10.542,0,0,0,47.044,3a15.266,15.266,0,0,0-13.212,8.215A15.266,15.266,0,0,0,20.62,3,10.542,10.542,0,0,0,9.872,13.27a10.268,10.268,0,0,0,.65,3.423H9.188a6.846,6.846,0,0,0-6.161,7.53V36.545a7.119,7.119,0,0,0,5.134,7.53V59.033a5.99,5.99,0,0,0,6.2,5.579H53.308A5.99,5.99,0,0,0,59.5,58.9V44.075a7.119,7.119,0,0,0,5.134-7.53V24.223a6.846,6.846,0,0,0-6.161-7.53Zm-.685,7.53V36.545a1.917,1.917,0,0,1,0,.685H37.255V23.538H57.791a1.917,1.917,0,0,1,0,.685ZM47.044,9.847a3.7,3.7,0,0,1,3.9,3.423,3.7,3.7,0,0,1-3.9,3.423h-8.42A10.029,10.029,0,0,1,47.044,9.847ZM16.718,13.27a3.7,3.7,0,0,1,3.9-3.423,10.029,10.029,0,0,1,8.386,6.846H20.62a3.7,3.7,0,0,1-3.9-3.423ZM9.872,24.223a1.917,1.917,0,0,1,0-.685H30.409V37.23H9.872a1.917,1.917,0,0,1,0-.685Zm5.134,19.852h15.4V57.766h-15.4ZM37.255,57.766V44.075h15.4V57.766Z" transform="translate(0 0)"/></g></g></svg>